<?xml version="1.0" encoding="UTF-8"?>
<!DOCTYPE svg PUBLIC "-//W3C//DTD SVG 1.1//EN" "http://www.w3.org/Graphics/SVG/1.1/DTD/svg11.dtd">
<!-- Creator: CorelDRAW X6 -->
<svg xmlns="http://www.w3.org/2000/svg" xml:space="preserve" width="36px" height="46px" version="1.1" style="shape-rendering:geometricPrecision; text-rendering:geometricPrecision; image-rendering:optimizeQuality; fill-rule:evenodd; clip-rule:evenodd"
viewBox="0 0 41 53"
 xmlns:xlink="http://www.w3.org/1999/xlink">
 <defs>
  <style type="text/css">
   <![CDATA[
    .str0 {stroke:#009846;stroke-width:0.441706}
    .fil2 {fill:#FEFEFE}
    .fil0 {fill:#C5C6C6;fill-rule:nonzero}
    .fil1 {fill:url(#id2);fill-rule:nonzero}
   ]]>
  </style>
   <mask id="id0">
  <linearGradient id="id1" gradientUnits="userSpaceOnUse" x1="15.1177" y1="41.1206" x2="41.2392" y2="51.4201">
   <stop offset="0" style="stop-opacity:1; stop-color:white"/>
   <stop offset="1" style="stop-opacity:0; stop-color:white"/>
  </linearGradient>
    <rect style="fill:url(#id1)" x="15" y="40" width="25.6015" height="13.1806"/>
   </mask>
  <linearGradient id="id2" gradientUnits="userSpaceOnUse" x1="15.1611" y1="49.3288" x2="15.1611" y2="0.220853">
   <stop offset="0" style="stop-color:#009846"/>
   <stop offset="0.521569" style="stop-color:#58B133"/>
   <stop offset="1" style="stop-color:#B0CB1F"/>
  </linearGradient>
 </defs>
 <g id="Capa_x0020_1">
  <metadata id="CorelCorpID_0Corel-Layer"/>
  <path class="fil0" style="mask:url(#id0)" d="M15 50c4,-3 0,-9 3,-10 3,-1 9,0 17,4 8,5 7,7 4,8 -3,1 -14,-3 -23,-3z"/>
  <path class="fil1 str0" d="M15 49c-4,-16 -15,-25 -15,-33 0,-8 4,-16 15,-16 11,0 15,8 15,16 0,8 -11,16 -15,33z"/>
  <g id="_746379056">
   <g>
    <path class="fil2" d="M15 17c3,0 5,-2 5,-5 0,0 0,-1 0,-1 0,0 0,0 0,0 -1,2 -3,2 -4,2 0,0 0,0 0,0 0,0 0,0 0,0 -1,0 -3,0 -4,-2 0,0 0,1 0,1 0,3 2,5 5,5z"/>
    <path class="fil2" d="M15 26l-1 -3 0 0 0 0 1 -1 -1 -1 0 0 0 0 1 -1 -2 -2c0,0 0,0 -3,1 -3,1 -3,4 -3,4 0,0 0,3 0,3l8 0z"/>
    <path class="fil2" d="M21 19c-3,-1 -3,-1 -3,-1l-2 2 1 1 0 0 0 0 -1 1 1 1 0 0 0 0 -1 3 9 0c0,0 0,-3 0,-3 0,0 0,-3 -3,-4zm0 4l-3 0 0 0 3 0 0 0z"/>
    <polygon class="fil2" points="15,21 14,23 15,26 15,26 15,25 16,23 15,21 16,20 16,19 15,19 14,19 14,20 "/>
    <path class="fil2" d="M19 6c-1,0 -2,0 -3,-1 -1,-1 -1,-1 -1,-1 0,0 0,0 0,0 0,0 0,0 0,0 0,0 0,0 -1,1 -1,1 -2,1 -3,1 -1,0 -1,0 -1,1 0,1 -1,1 -1,1 0,0 1,1 1,1 0,0 1,-1 2,-1 1,0 2,0 3,0 1,0 2,0 3,0 1,0 1,0 1,1 0,0 1,-1 1,-1 0,0 0,0 -1,-1 0,-1 0,-1 -1,-1z"/>
    <path class="fil2" d="M19 10l0 0c0,0 0,0 0,0 0,0 0,0 -1,0 -1,0 -2,0 -4,0 -1,0 -3,0 -4,0 0,0 -1,0 -1,0 0,0 0,0 0,0l0 1c0,0 0,0 0,0 1,-1 3,-1 4,-1 2,0 3,0 4,1l0 0 0 0z"/>
    <path class="fil2" d="M10 11c1,1 3,2 4,2 0,0 0,0 0,0 0,0 0,0 0,0 1,0 3,0 4,-2 -1,-1 -3,-1 -4,-1 -2,0 -4,0 -5,1z"/>
   </g>
  </g>
 </g>
</svg>
