<?xml version="1.0" encoding="UTF-8"?>
<!DOCTYPE svg PUBLIC "-//W3C//DTD SVG 1.1//EN" "http://www.w3.org/Graphics/SVG/1.1/DTD/svg11.dtd">
<!-- Creator: CorelDRAW X6 -->
<svg xmlns="http://www.w3.org/2000/svg" xml:space="preserve" width="429px" height="517px" version="1.1" style="shape-rendering:geometricPrecision; text-rendering:geometricPrecision; image-rendering:optimizeQuality; fill-rule:evenodd; clip-rule:evenodd"
viewBox="0 0 563 678"
 xmlns:xlink="http://www.w3.org/1999/xlink">
 <defs>
  <style type="text/css">
   <![CDATA[
    .str0 {stroke:#067937;stroke-width:7.75225;stroke-linecap:round;stroke-linejoin:round}
    .fil2 {fill:#FEFEFE}
    .fil0 {fill:url(#id2)}
    .fil1 {fill:url(#id3);fill-rule:nonzero}
   ]]>
  </style>
   <mask id="id0">
  <linearGradient id="id1" gradientUnits="userSpaceOnUse" x1="498.255" y1="741.42" x2="134.61" y2="441.16">
   <stop offset="0" style="stop-opacity:1; stop-color:white"/>
   <stop offset="1" style="stop-opacity:0; stop-color:white"/>
  </linearGradient>
    <rect style="fill:url(#id1)" x="70" y="504" width="494" height="174"/>
   </mask>
  <radialGradient id="id2" gradientUnits="objectBoundingBox" cx="49.9998%" cy="50%" r="50.0002%" fx="49.9998%" fy="50%">
   <stop offset="0" style="stop-color:#727271"/>
   <stop offset="0.439216" style="stop-color:#9C9C9C"/>
   <stop offset="1" style="stop-color:#C5C6C6"/>
  </radialGradient>
  <linearGradient id="id3" gradientUnits="userSpaceOnUse" x1="208.47" y1="669.233" x2="208.47" y2="3.87612">
   <stop offset="0" style="stop-color:#054F2E"/>
   <stop offset="1" style="stop-color:#14963C"/>
  </linearGradient>
 </defs>
 <g id="Capa_x0020_1">
  <metadata id="CorelCorpID_0Corel-Layer"/>
  <polygon class="fil0" style="mask:url(#id0)" points="203,678 396,611 494,585 523,577 540,570 559,560 563,548 559,537 549,527 532,521 489,511 453,509 400,504 319,504 272,504 160,525 134,532 109,541 88,551 79,560 72,567 70,576 72,582 84,592 105,602 139,614 167,624 186,634 194,645 199,660 196,669 196,678 "/>
  <path class="fil1 str0" d="M208 669c-51,-222 -205,-333 -205,-444 0,-111 51,-222 205,-222 153,0 205,111 205,222 0,111 -153,222 -205,444z"/>
  <g id="_749114976">
   <g>
    <path class="fil2" d="M206 229c36,0 65,-29 65,-65 0,-5 -1,-10 -2,-15 -1,0 -1,-1 -1,-1 -10,24 -45,26 -59,26 -3,0 -4,0 -5,0 -1,0 -3,0 -5,0 -13,0 -43,-2 -56,-21 -1,3 -1,7 -1,10 0,36 29,65 65,65z"/>
    <path class="fil2" d="M201 347l-18 -36 -1 -2 2 -2 14 -17 -13 -13 -3 -3 3 -3 12 -12 -30 -20c0,0 3,-2 -40,15 -43,17 -39,56 -39,58 1,2 0,37 0,37l115 -2z"/>
    <path class="fil2" d="M289 254c-43,-17 -40,-15 -40,-15l-32 22 11 10 3 3 -3 3 -13 13 14 17 2 2 -1 2 -18 36 118 2c0,0 -1,-35 0,-37 1,-2 4,-41 -39,-58zm5 61l-43 0 0 -5 43 0 0 5z"/>
    <polygon class="fil2" points="202,290 186,310 205,347 206,348 209,342 225,310 210,290 225,274 214,264 206,255 199,262 186,274 "/>
    <path class="fil2" d="M265 79c-11,-1 -30,-2 -44,-14 -10,-9 -15,-10 -17,-10 -1,0 -1,0 -1,0 0,0 0,0 -1,0 -1,0 -5,1 -15,10 -14,12 -31,13 -42,14 -11,1 -11,6 -13,18 -3,12 -13,16 -10,19 2,2 10,9 15,14 6,-4 13,-7 22,-9 13,-3 29,-5 46,-5 18,0 34,2 47,5 7,2 14,5 19,8 6,-5 13,-10 15,-12 3,-3 -6,-6 -9,-19 -3,-12 -2,-17 -13,-18z"/>
    <path class="fil2" d="M264 135l0 -2c0,0 2,-1 4,-3 -3,-2 -7,-3 -11,-5 -14,-4 -32,-6 -52,-6 -20,0 -38,1 -51,5 -5,2 -10,4 -14,6 1,1 2,2 2,2l0 9c1,-1 2,-1 3,-2 15,-7 36,-12 60,-12 23,0 44,4 58,11l0 -5 0 0z"/>
    <path class="fil2" d="M144 148c10,20 42,22 54,22 3,0 5,0 5,0 0,0 2,0 5,0 13,0 46,-2 55,-24 -14,-7 -35,-12 -58,-12 -25,0 -48,6 -62,14z"/>
   </g>
  </g>
 </g>
</svg>
